<svg xmlns="http://www.w3.org/2000/svg" xmlns:xlink="http://www.w3.org/1999/xlink" viewBox="0 0 64 64">
  <g>
    <polygon points="15.140000343322754,36.10000228881836 21.3799991607666,36.10000228881836 13.529999732971191,20.700000762939453 4.550000190734863,38.31999969482422 2,43.29999923706055 8.229999542236328,43.29999923706055 10.289999961853027,39.290000915527344 13.529999732971191,32.93000030517578 15.140000343322754,36.10000228881836 " class="cls-1" />
    <path d="m26.86,22.01a6.24,6.24 0 0 0 -6.22,6.25l0,0.11a6.14,6.14 0 0 0 1.09,3.52a5.82,5.82 0 0 0 0.79,1l0,0a6.17,6.17 0 0 0 4.33,1.75l6.93,0a1.57,1.57 0 0 1 1.57,1.57a1.59,1.59 0 0 1 -1.57,1.56l-20.39,0.06l-2.74,5.47l23.35,0l0.12,0c2.91,-0.69 6.59,-3.38 6.78,-7a7,7 0 0 0 -1.6,-4.55l0,0l0,-0.05l-0.05,0l-0.25,-0.31a7.1,7.1 0 0 0 -5.24,-2.31l-6.9,0a0.7,0.7 0 0 1 -0.69,-0.68l0,-0.11a0.7,0.7 0 0 1 0.69,-0.69l32.35,-0.05l2.79,-5.51l-35.14,-0.03z" class="cls-2" />
    <path d="m42.12,35.43l0,7.87l5.55,0l0,-7.87a0.7,0.7 0 0 1 0.69,-0.68l7.15,0l2.84,-5.56l-10,0a6.24,6.24 0 0 0 -6.23,6.24z" class="cls-2" />
    <polygon points="15.140000343322754,36.10000228881836 21.3799991607666,36.10000228881836 13.529999732971191,20.700000762939453 4.550000190734863,38.31999969482422 2,43.29999923706055 8.229999542236328,43.29999923706055 10.289999961853027,39.290000915527344 13.529999732971191,32.93000030517578 15.140000343322754,36.10000228881836 " />
    <path d="m42.12,35.43l0,7.87l5.55,0l0,-7.87a0.7,0.7 0 0 1 0.69,-0.68l7.15,0l2.84,-5.56l-10,0a6.24,6.24 0 0 0 -6.23,6.24z" />
  </g>
</svg>